<?xml version="1.0" encoding="utf-8"?>
<!-- Generator: Adobe Illustrator 19.1.0, SVG Export Plug-In . SVG Version: 6.00 Build 0)  -->
<svg version="1.0" id="Layer_1" xmlns="http://www.w3.org/2000/svg" xmlns:xlink="http://www.w3.org/1999/xlink" x="0px" y="0px"
	 width="50px" height="50px" viewBox="0 0 50 50" style="enable-background:new 0 0 50 50;" xml:space="preserve">
<style type="text/css">
	.st0{fill:#FFFFFF;}
</style>
<path class="st0" d="M17.3,31.2c-0.5,0-0.9-0.4-1-0.9h-3.4v3.8h8.8v-3.8h-3.4C18.2,30.8,17.8,31.2,17.3,31.2z M19,38.8
	c0,0.7,0.6,1.4,1.4,1.4c0.7,0,1.3-0.6,1.3-1.3V35H19V38.8z M17.3,26.3c-1.1,0-2.1,0.6-2.1,1.4h-2.3v2h3.5c0.1-0.5,0.5-0.8,1-0.8
	s0.8,0.3,1,0.8h3.5v-2h-2.3C19.4,26.9,18.4,26.3,17.3,26.3z M30.9,16.8c1.2,0,2.1-0.9,2.1-2.1s-0.9-2.1-2.1-2.1
	c-1.2,0-2.1,0.9-2.1,2.1C28.9,15.9,29.8,16.8,30.9,16.8z M22,15.9c1.5,0,2.7-1.2,2.7-2.7s-1.2-2.7-2.7-2.7s-2.7,1.2-2.7,2.7
	S20.5,15.9,22,15.9z M34.6,28.7c-0.4,0-0.7-0.3-0.7-0.7h-2.6v2.9H38V28h-2.6C35.3,28.4,34.9,28.7,34.6,28.7z M23.9,16.3h-1.2
	c-0.1,0.3-0.2,0.5-0.4,0.6l0.5,5.6L22,24l-0.7-1.5l0.5-5.6c-0.2-0.1-0.4-0.3-0.4-0.6h-1c-2.1,0-3.7,1.5-4,3.5l0,0v5.9h2v-5.3H19v5.5
	c0.4,0.2,0.7,0.6,0.9,0.9h2.6v12c0,0.8,0.6,1.4,1.4,1.4c0.7,0,1.2-0.6,1.2-1.2V20.4H26v7.5c0,0.5,0.4,1,1,1s1-0.4,1-1v-7.7l0,0
	C27.8,18,26.1,16.3,23.9,16.3z M36.2,25.9c0-0.6-0.7-1.1-1.6-1.1S33,25.3,33,25.9h-1.8v1.6h2.7c0.1-0.4,0.4-0.6,0.7-0.6
	s0.6,0.3,0.7,0.6H38v-1.6H36.2z M31.2,34.6c0,0.6,0.5,1,1,1c0.6,0,1-0.5,1-1v-3h-2.1v3H31.2z M33.3,24.5v-4.2h0.6v4.1h1.5v-4.5l0,0
	c-0.2-1.5-1.5-2.7-3.1-2.7h-0.8c-0.1,0.2-0.2,0.4-0.3,0.5l0.4,4.3l-0.5,1.1L30.4,22l0.4-4.3c-0.1-0.1-0.3-0.2-0.3-0.5h-1
	c-0.7,0-1.3,0.2-1.8,0.6c0.4,0.5,0.6,1.2,0.8,1.9h0.1V28v0.1v6.6c0,0.5,0.4,1,1,1s1.1-0.5,1.1-1.1v-9.3h2C32.7,25,33,24.7,33.3,24.5
	z"/>
</svg>
