<?xml version="1.0" encoding="utf-8"?>
<!-- Generator: Adobe Illustrator 19.1.0, SVG Export Plug-In . SVG Version: 6.00 Build 0)  -->
<svg version="1.0" id="Layer_1" xmlns="http://www.w3.org/2000/svg" xmlns:xlink="http://www.w3.org/1999/xlink" x="0px" y="0px"
	 width="50px" height="50px" viewBox="0 0 50 50" style="enable-background:new 0 0 50 50;" xml:space="preserve">
<style type="text/css">
	.st0{fill:#FFFFFF;}
</style>
<path class="st0" d="M25.3,13.4c-6.4,0-11.6,5.2-11.6,11.6s5.2,11.6,11.6,11.6S36.9,31.4,36.9,25S31.7,13.4,25.3,13.4z M26.3,30.3
	c-0.2,0.2-0.5,0.3-1,0.3c-0.4,0-0.7-0.1-1-0.3c-0.2-0.2-0.3-0.5-0.3-0.9s0.1-0.7,0.3-0.9s0.6-0.3,1-0.3s0.7,0.1,1,0.3
	s0.3,0.5,0.3,0.9C26.6,29.8,26.5,30.1,26.3,30.3z M28.7,23.5c-0.2,0.4-0.7,0.8-1.4,1.3c-0.5,0.4-0.8,0.6-0.9,0.8
	c-0.1,0.2-0.2,0.4-0.2,0.7v0.4h-2v-0.6c0-0.5,0.1-0.9,0.3-1.2c0.2-0.4,0.6-0.7,1.1-1.1s0.9-0.7,1-0.9c0.2-0.2,0.3-0.5,0.3-0.8
	s-0.1-0.6-0.4-0.7c-0.2-0.2-0.6-0.3-1-0.3c-0.7,0-1.6,0.2-2.6,0.7l-0.8-1.6c1.1-0.6,2.3-0.9,3.5-0.9c1,0,1.8,0.2,2.4,0.7
	s0.9,1.2,0.9,2C29.1,22.6,29,23.1,28.7,23.5z"/>
</svg>
