<?xml version="1.0" encoding="utf-8"?>
<!-- Generator: Adobe Illustrator 19.1.0, SVG Export Plug-In . SVG Version: 6.00 Build 0)  -->
<svg version="1.0" id="Layer_1" xmlns="http://www.w3.org/2000/svg" xmlns:xlink="http://www.w3.org/1999/xlink" x="0px" y="0px"
	 width="50px" height="50px" viewBox="0 0 50 50" style="enable-background:new 0 0 50 50;" xml:space="preserve">
<style type="text/css">
	.st0{fill:#FFFFFF;}
	.st1{fill-rule:evenodd;clip-rule:evenodd;fill:#FFFFFF;}
	.st2{fill-rule:evenodd;clip-rule:evenodd;fill:#67B2CB;}
</style>
<path class="st0" d="M44,25.9c-0.1-5-2.2-9.7-5.8-13.1c-0.7,1-1.5,2.1-2.2,3.1c2.7,2.7,4.2,6.3,4.3,10.1c0.1,4-1.4,7.8-4.1,10.7
	c-2.8,2.9-6.5,4.5-10.5,4.6c-4,0.1-7.8-1.4-10.7-4.1c-2.9-2.8-4.5-6.5-4.6-10.5c-0.2-6.9,4.5-13,11.1-14.8c-0.2-1.2-0.4-2.5-0.5-3.7
	c-8.5,2-14.5,9.8-14.3,18.6c0.1,5,2.2,9.7,5.8,13.1c3.5,3.3,8,5.2,12.9,5.2c0.2,0,0.3,0,0.5,0c5-0.1,9.7-2.2,13.1-5.8
	C42.3,35.6,44.1,30.9,44,25.9z"/>
<path class="st1" d="M15.8,18.7c0,0,0-0.1,0-0.1c0,0,0-0.1,0.1-0.1c0.4-0.1,1.3-0.4,1.8-0.6c1.3-0.4,3.7-1.2,4.4-1.4
	c0,0,0.1,0,0.1,0c0,0,0.1,0.1,0.1,0.1l1.6,9.7c0,0,0,0.1-0.1,0.1c0,0-0.1,0-0.1,0c-0.5-0.5-1.9-1.8-2.6-2.5
	c-1.1-1.1-2.2-2.2-3.3-3.3C17.2,20.1,16.2,19.1,15.8,18.7z"/>
<path class="st2" d="M38,9.9c0.1,0,0.1,0.1,0.1,0.1c0,0.1,0,0.1,0,0.2c-4.2,5.9-8.3,11.8-12.5,17.6c0,0-0.1,0.1-0.2,0.1
	c-0.1,0-0.1-0.1-0.1-0.1c-1.1-7.4-2.2-14.7-3.2-22.1c0,0,0-0.1,0-0.1s0.1,0,0.1,0C27.5,7,32.7,8.5,38,9.9z"/>
</svg>
