<?xml version="1.0" encoding="utf-8"?>
<!-- Generator: Adobe Illustrator 19.1.0, SVG Export Plug-In . SVG Version: 6.00 Build 0)  -->
<svg version="1.0" id="Layer_1" xmlns="http://www.w3.org/2000/svg" xmlns:xlink="http://www.w3.org/1999/xlink" x="0px" y="0px"
	 width="50px" height="50px" viewBox="0 0 50 50" style="enable-background:new 0 0 50 50;" xml:space="preserve">
<style type="text/css">
	.st0{fill:#CAD0D3;}
</style>
<path class="st0" d="M34.3,25.1c0-0.5-0.1-1-0.1-1.5l2-1.6c-0.5-1.9-1.5-3.7-2.9-5.1l-2.4,0.9c-0.8-0.6-1.6-1.1-2.6-1.5l-0.4-2.5
	c-0.9-0.2-1.9-0.4-2.9-0.4s-2,0.1-2.9,0.4l-0.4,2.5c-0.9,0.4-1.8,0.9-2.6,1.5L16.6,17c-1.4,1.4-2.4,3.1-2.9,5.1l2,1.6
	c-0.1,0.5-0.1,1-0.1,1.5c0,0.5,0.1,1,0.1,1.5l-2,1.6c0.5,1.9,1.5,3.7,2.9,5.1l2.4-0.9c0.8,0.6,1.6,1.1,2.6,1.5l0.4,2.5
	c0.9,0.2,1.9,0.4,2.9,0.4s2-0.1,2.9-0.4l0.4-2.5c0.9-0.4,1.8-0.9,2.6-1.5l2.4,0.9c1.4-1.4,2.4-3.1,2.9-5.1l-2-1.6
	C34.2,26.1,34.3,25.6,34.3,25.1z M24.9,29.9c-2.7,0-4.8-2.2-4.8-4.8c0-2.7,2.2-4.8,4.8-4.8c2.7,0,4.8,2.2,4.8,4.8
	C29.7,27.8,27.6,29.9,24.9,29.9z"/>
</svg>
