<?xml version="1.0" encoding="utf-8"?>
<!-- Generator: Adobe Illustrator 19.1.0, SVG Export Plug-In . SVG Version: 6.00 Build 0)  -->
<svg version="1.0" id="Layer_1" xmlns="http://www.w3.org/2000/svg" xmlns:xlink="http://www.w3.org/1999/xlink" x="0px" y="0px"
	 width="50px" height="50px" viewBox="0 0 50 50" style="enable-background:new 0 0 50 50;" xml:space="preserve">
<style type="text/css">
	.st0{fill:#CAD0D3;}
</style>
<path class="st0" d="M30.1,16.5c-4.1-3.6-10.2-3.6-14.3,0l7.1,7.1L30.1,16.5z"/>
<path class="st0" d="M14.9,17.5c-3.6,4.1-3.6,10.2,0,14.3l7.1-7.1L14.9,17.5z"/>
<path class="st0" d="M26.2,37.2h3.5V28h-3.5V37.2z M31,37.2h3.5V26.4H31V37.2z M31.1,17.5L15.9,32.8c2.6,2.3,6,3.1,9.1,2.5v-8.5h4.8
	v-1.6h4C33.9,22.5,33.1,19.7,31.1,17.5z M35.8,24.7v12.5h3.5V24.7H35.8z"/>
</svg>
