<?xml version="1.0" encoding="utf-8"?>
<!-- Generator: Adobe Illustrator 19.1.0, SVG Export Plug-In . SVG Version: 6.00 Build 0)  -->
<svg version="1.0" id="Layer_1" xmlns="http://www.w3.org/2000/svg" xmlns:xlink="http://www.w3.org/1999/xlink" x="0px" y="0px"
	 width="50px" height="50px" viewBox="0 0 50 50" style="enable-background:new 0 0 50 50;" xml:space="preserve">
<style type="text/css">
	.st0{fill:#FFFFFF;}
</style>
<path class="st0" d="M30.2,15.9h-2.3c-0.4-1.2-1.6-2.1-3-2.1s-2.5,0.9-3,2.1h-2.3V18h10.5L30.2,15.9L30.2,15.9z M31.2,27.2
	c-2.5,0-4.4,2-4.4,4.4c0,2.5,2,4.4,4.4,4.4c2.5,0,4.4-2,4.4-4.4C35.7,29.2,33.7,27.2,31.2,27.2z M30.9,34.7l-3.1-2.9l1-1.1l2,1.8
	l2.7-3.4l1.2,0.9L30.9,34.7z M24.2,31.6c0-3.8,3.1-7,7-7c1.1,0,2.2,0.3,3.1,0.8V18c0-1.2-0.9-2.1-2.1-2.1v4.2H17.6v-4.2
	c-1.2,0-2.1,0.9-2.1,2.1v16.8c0,1.2,0.9,2.1,2.1,2.1h9.1C25.2,35.6,24.2,33.7,24.2,31.6z M17.6,22.2h10.5v2.1H17.6V22.2z M23.9,28.5
	h-6.3v-2.1h6.3C23.9,26.4,23.9,28.5,23.9,28.5z"/>
</svg>
