<?xml version="1.0" encoding="utf-8"?>
<!-- Generator: Adobe Illustrator 19.1.0, SVG Export Plug-In . SVG Version: 6.00 Build 0)  -->
<svg version="1.0" id="Layer_1" xmlns="http://www.w3.org/2000/svg" xmlns:xlink="http://www.w3.org/1999/xlink" x="0px" y="0px"
	 width="50px" height="50px" viewBox="0 0 50 50" style="enable-background:new 0 0 50 50;" xml:space="preserve">
<style type="text/css">
	.st0{fill:#CAD0D3;}
</style>
<path class="st0" d="M27.9,17.4v6.8h1.7v0l0,0l3.1-2.1l-1-1.4l-2.2,1.5v-4.7H27.9z M31.1,11.6h-4.7v1.6h4.7V11.6z M16.7,32.3
	c0.3,0.3,0.6,0.4,1,0.4c0,0,0,0,0,0c0.4,0,0.7-0.2,1-0.4c0.3-0.3,0.4-0.6,0.4-1L19,27.6c0-0.4-0.2-0.7-0.4-1c-0.3-0.3-0.6-0.4-1-0.4
	c0,0,0,0,0,0c-0.4,0-0.7,0.2-1,0.4c-0.3,0.3-0.4,0.6-0.4,1l0.1,3.6C16.2,31.6,16.4,32,16.7,32.3z M14.1,32.7
	C14.1,32.7,14.1,32.7,14.1,32.7c0.4,0,0.8-0.2,1-0.4c0.3-0.3,0.4-0.6,0.4-1l-0.1-3.6c0-0.4-0.2-0.7-0.4-1c-0.3-0.3-0.6-0.4-1-0.4
	c0,0,0,0,0,0c-0.4,0-0.7,0.2-1,0.4c-0.3,0.3-0.4,0.6-0.4,1l0.1,3.6c0,0.4,0.2,0.7,0.4,1C13.4,32.6,13.7,32.7,14.1,32.7z M20.3,32.2
	c0.3,0.3,0.6,0.4,1,0.4c0,0,0,0,0,0c0.4,0,0.7-0.2,1-0.4c0.3-0.3,0.4-0.6,0.4-1l-0.1-3.6c0-0.4-0.2-0.7-0.4-1
	c-0.3-0.3-0.6-0.4-1-0.4c0,0,0,0,0,0c-0.4,0-0.7,0.2-1,0.4c-0.3,0.3-0.4,0.6-0.4,1l0.1,3.6C19.9,31.6,20,31.9,20.3,32.2z M28.8,14
	c-5.2,0-9.4,4.2-9.4,9.4c0,0.7,0.1,1.4,0.2,2.1c0.4-0.3,0.9-0.5,1.5-0.5c0,0,0,0,0.1,0c0.3,0,0.6,0,0.9,0.1
	c-0.1-0.6-0.2-1.1-0.2-1.8c0-3.8,3.1-7,7-7c3.8,0,7,3.1,7,7c0,3.7-3,6.8-6.6,7c0,0.2,0.1,0.4,0.1,0.6l0,1.8c5-0.2,8.9-4.3,8.9-9.3
	C38.1,18.2,33.9,14,28.8,14z M27.6,30c-0.3-0.3-0.6-0.4-1-0.4c0,0,0,0,0,0c-0.4,0-0.7,0.2-1,0.4c-0.3,0.3-0.4,0.6-0.4,1l0.1,3.6
	c0,0.3-0.1,0.4-0.4,0.4c0,0,0,0,0,0c-0.2,0-0.3-0.1-0.4-0.4l-0.1-3.6c0-0.5,0.1-1,0.5-1.4c0.3-0.4,0.8-0.7,1.3-0.8l-0.1-5.7
	c0-0.4-0.2-0.7-0.4-1c-0.3-0.3-0.6-0.4-1-0.4c0,0,0,0,0,0c-0.4,0-0.7,0.2-1,0.4c-0.3,0.3-0.4,0.6-0.4,1l0.2,7.8
	c0,0.6-0.2,1.1-0.6,1.6c-0.4,0.4-0.9,0.7-1.5,0.7c0,0,0,0-0.1,0c-0.7,0-1.3-0.3-1.8-0.9c-0.4,0.6-1,1-1.8,1c0,0,0,0-0.1,0
	c-0.7,0-1.3-0.3-1.8-0.9c-0.4,0.6-1,1-1.8,1c0,0,0,0-0.1,0c-0.5,0-1-0.2-1.4-0.5l0,1.9c0,1.1,0.5,2.1,1.3,2.9
	c0.8,0.8,1.7,1.1,2.8,1.1c0,0,0.1,0,0.1,0l7.2-0.2c1.1,0,2.1-0.5,2.9-1.3c0.8-0.8,1.2-1.8,1.1-2.9L28.1,31
	C28.1,30.6,27.9,30.3,27.6,30z"/>
</svg>
