<?xml version="1.0" encoding="utf-8"?>
<!-- Generator: Adobe Illustrator 19.1.0, SVG Export Plug-In . SVG Version: 6.00 Build 0)  -->
<svg version="1.0" id="Layer_1" xmlns="http://www.w3.org/2000/svg" xmlns:xlink="http://www.w3.org/1999/xlink" x="0px" y="0px"
	 width="50px" height="50px" viewBox="0 0 50 50" style="enable-background:new 0 0 50 50;" xml:space="preserve">
<style type="text/css">
	.st0{fill:#FFFFFF;}
</style>
<path class="st0" d="M36.3,21.9c0-2.3-1.9-4.2-4.2-4.2s-4.2,1.9-4.2,4.2s1.9,4.2,4.2,4.2C34.4,26.2,36.3,24.3,36.3,21.9z M20.7,24.1
	c2.8,0,5.2-2.3,5.2-5.2c0-2.8-2.3-5.2-5.2-5.2c-2.8,0-5.2,2.3-5.2,5.2C15.6,21.8,17.9,24.1,20.7,24.1z M22.7,25.6h-3.9
	c-3.4,0-6.1,2.7-6.1,6.1v4.2h16v-4.2C28.8,28.3,26.1,25.6,22.7,25.6z M33.6,27.4h-3.2c-0.3,0-0.5,0-0.8,0.1c0.7,1.2,1.2,2.7,1.2,4.2
	v4.2h7.8v-3.5C38.6,29.6,36.4,27.4,33.6,27.4z"/>
</svg>
