<?xml version="1.0" encoding="utf-8"?>
<!-- Generator: Adobe Illustrator 19.1.0, SVG Export Plug-In . SVG Version: 6.00 Build 0)  -->
<svg version="1.0" id="Layer_1" xmlns="http://www.w3.org/2000/svg" xmlns:xlink="http://www.w3.org/1999/xlink" x="0px" y="0px"
	 width="60px" height="40px" viewBox="0 0 60 40" style="enable-background:new 0 0 60 40;" xml:space="preserve">
<style type="text/css">
	.st0{fill:#374456;}
</style>
<path class="st0" d="M51.4,27.2c-2.2,0-4,1.5-4.6,3.5H12.6c-2.6,0-4.7-2.1-4.7-4.7c0-1.3,0.5-2.5,1.4-3.4c0.9-0.9,2.1-1.4,3.4-1.4
	h36.3c4,0,7.2-3.2,7.2-7.2c0-4-3.2-7.2-7.2-7.2H13.2c-0.5-2-2.4-3.5-4.6-3.5C6,3.3,3.9,5.5,3.9,8.1s2.1,4.7,4.7,4.7
	c2.2,0,4-1.5,4.6-3.5h35.7c2.6,0,4.7,2.1,4.7,4.7c0,2.6-2.1,4.7-4.7,4.7H12.6c-1.9,0-3.8,0.8-5.1,2.2c-1.4,1.4-2.1,3.2-2.1,5.2
	c0.1,3.9,3.3,7.1,7.2,7.1h34.2c0.5,2,2.4,3.5,4.6,3.5c2.6,0,4.7-2.1,4.7-4.7S54,27.2,51.4,27.2z M8.6,10.3c-1.2,0-2.3-1-2.3-2.3
	c0-1.2,1-2.3,2.3-2.3s2.3,1,2.3,2.3C10.9,9.3,9.9,10.3,8.6,10.3z M51.4,34.2c-1.2,0-2.3-1-2.3-2.3c0-1.2,1-2.3,2.3-2.3
	c1.2,0,2.3,1,2.3,2.3C53.7,33.2,52.6,34.2,51.4,34.2z"/>
</svg>
