<?xml version="1.0" ?><!DOCTYPE svg  PUBLIC '-//W3C//DTD SVG 1.1//EN'
        'http://www.w3.org/Graphics/SVG/1.1/DTD/svg11.dtd'>
<svg enable-background="new 0 0 32 32" height="32px" id="Layer_1" version="1.1" viewBox="0 0 32 32" width="32px" xml:space="preserve" xmlns="http://www.w3.org/2000/svg" xmlns:xlink="http://www.w3.org/1999/xlink"><g id="settings_2_"><path clip-rule="evenodd" d="M8,6.021V3c0-1.654-1.346-3-3-3S2,1.346,2,3v3.021   C0.792,6.936,0,8.369,0,10s0.792,3.064,2,3.977V29c0,1.654,1.346,3,3,3s3-1.346,3-3V13.977c1.208-0.912,2-2.346,2-3.977   S9.208,6.936,8,6.021z M4,3c0-0.553,0.447-1,1-1s1,0.447,1,1v2.1C5.677,5.035,5.343,5,5,5S4.323,5.035,4,5.1V3z M6,29   c0,0.553-0.447,1-1,1s-1-0.447-1-1V14.898C4.323,14.965,4.657,15,5,15s0.677-0.035,1-0.102V29z M7.865,10.84   c-0.016,0.053-0.03,0.105-0.049,0.158c-0.095,0.264-0.217,0.514-0.378,0.736c-0.004,0.006-0.01,0.01-0.014,0.016   c-0.174,0.238-0.381,0.449-0.616,0.627c-0.004,0.004-0.007,0.006-0.01,0.008c-0.241,0.182-0.51,0.328-0.799,0.43   C5.686,12.928,5.353,13,5,13s-0.686-0.072-1-0.186c-0.289-0.102-0.558-0.248-0.799-0.43c-0.003-0.002-0.006-0.004-0.01-0.008   c-0.235-0.178-0.442-0.389-0.616-0.627c-0.004-0.006-0.01-0.01-0.014-0.016c-0.161-0.223-0.283-0.473-0.378-0.736   c-0.019-0.053-0.033-0.105-0.049-0.158C2.055,10.572,2,10.293,2,10c0-0.295,0.055-0.574,0.135-0.842   c0.016-0.053,0.03-0.105,0.049-0.156C2.278,8.738,2.4,8.488,2.562,8.264c0.004-0.006,0.01-0.01,0.014-0.016   c0.174-0.236,0.381-0.449,0.616-0.627c0.004-0.002,0.007-0.006,0.01-0.008C3.442,7.434,3.711,7.287,4,7.184   C4.314,7.072,4.647,7,5,7s0.686,0.072,1,0.184c0.289,0.104,0.558,0.25,0.799,0.43c0.003,0.002,0.006,0.006,0.01,0.008   c0.235,0.178,0.442,0.391,0.616,0.627c0.004,0.006,0.01,0.01,0.014,0.016C7.6,8.488,7.722,8.738,7.816,9.002   C7.835,9.053,7.85,9.105,7.865,9.158C7.945,9.426,8,9.705,8,10C8,10.293,7.945,10.572,7.865,10.84z" fill="#333333" fill-rule="evenodd"/><path clip-rule="evenodd" d="M30,6.021V3c0-1.654-1.346-3-3-3s-3,1.346-3,3v3.021   C22.791,6.936,22,8.369,22,10s0.791,3.064,2,3.977V29c0,1.654,1.346,3,3,3s3-1.346,3-3V13.977c1.207-0.912,2-2.346,2-3.977   S31.207,6.936,30,6.021z M26,3c0-0.553,0.447-1,1-1s1,0.447,1,1v2.1C27.676,5.035,27.342,5,27,5c-0.344,0-0.678,0.035-1,0.1V3z    M28,29c0,0.553-0.447,1-1,1s-1-0.447-1-1V14.898C26.322,14.965,26.656,15,27,15c0.342,0,0.676-0.035,1-0.102V29z M29.865,10.84   c-0.016,0.053-0.031,0.105-0.049,0.158c-0.096,0.264-0.217,0.514-0.379,0.736c-0.004,0.006-0.01,0.01-0.014,0.016   c-0.174,0.238-0.381,0.449-0.615,0.627c-0.004,0.004-0.008,0.006-0.01,0.008c-0.242,0.182-0.51,0.328-0.799,0.43   C27.686,12.928,27.352,13,27,13c-0.354,0-0.686-0.072-1-0.186c-0.289-0.102-0.559-0.248-0.799-0.43   c-0.004-0.002-0.006-0.004-0.01-0.008c-0.236-0.178-0.443-0.389-0.617-0.627c-0.004-0.006-0.01-0.01-0.014-0.016   c-0.16-0.223-0.283-0.473-0.377-0.736c-0.02-0.053-0.033-0.105-0.049-0.158C24.055,10.572,24,10.293,24,10   c0-0.295,0.055-0.574,0.135-0.842c0.016-0.053,0.029-0.105,0.049-0.156c0.094-0.264,0.217-0.514,0.377-0.738   c0.004-0.006,0.01-0.01,0.014-0.016c0.174-0.236,0.381-0.449,0.617-0.627c0.004-0.002,0.006-0.006,0.01-0.008   c0.24-0.18,0.51-0.326,0.799-0.43C26.314,7.072,26.646,7,27,7c0.352,0,0.686,0.072,1,0.184c0.289,0.104,0.557,0.25,0.799,0.43   c0.002,0.002,0.006,0.006,0.01,0.008c0.234,0.178,0.441,0.391,0.615,0.627c0.004,0.006,0.01,0.01,0.014,0.016   c0.162,0.225,0.283,0.475,0.379,0.738c0.018,0.051,0.033,0.104,0.049,0.156C29.945,9.426,30,9.705,30,10   C30,10.293,29.945,10.572,29.865,10.84z" fill="#333333" fill-rule="evenodd"/><path clip-rule="evenodd" d="M19,18.021V3c0-1.654-1.346-3-3-3s-3,1.346-3,3v15.021   c-1.208,0.914-2,2.348-2,3.979s0.792,3.064,2,3.977V29c0,1.654,1.346,3,3,3s3-1.346,3-3v-3.023c1.207-0.912,2-2.346,2-3.977   S20.207,18.936,19,18.021z M15,3c0-0.553,0.447-1,1-1c0.553,0,1,0.447,1,1v14.1c-0.324-0.064-0.658-0.1-1-0.1   c-0.343,0-0.677,0.035-1,0.1V3z M17,29c0,0.553-0.447,1-1,1c-0.553,0-1-0.447-1-1v-2.102C15.323,26.965,15.657,27,16,27   c0.342,0,0.676-0.035,1-0.102V29z M18.865,22.84c-0.016,0.053-0.031,0.105-0.049,0.158c-0.096,0.264-0.217,0.514-0.379,0.736   c-0.004,0.006-0.01,0.01-0.014,0.016c-0.174,0.238-0.381,0.449-0.615,0.627c-0.004,0.004-0.008,0.006-0.01,0.008   c-0.242,0.182-0.51,0.328-0.799,0.43C16.686,24.928,16.352,25,16,25c-0.353,0-0.686-0.072-1-0.186   c-0.289-0.102-0.558-0.248-0.799-0.43c-0.003-0.002-0.006-0.004-0.01-0.008c-0.235-0.178-0.442-0.389-0.616-0.627   c-0.004-0.006-0.01-0.01-0.014-0.016c-0.161-0.223-0.283-0.473-0.378-0.736c-0.019-0.053-0.033-0.105-0.049-0.158   C13.055,22.572,13,22.293,13,22c0-0.295,0.055-0.574,0.135-0.842c0.016-0.053,0.03-0.105,0.049-0.156   c0.095-0.264,0.217-0.514,0.378-0.738c0.004-0.006,0.01-0.01,0.014-0.016c0.174-0.236,0.381-0.449,0.616-0.627   c0.004-0.002,0.007-0.006,0.01-0.008c0.241-0.18,0.51-0.326,0.799-0.43C15.314,19.072,15.647,19,16,19c0.352,0,0.686,0.072,1,0.184   c0.289,0.104,0.557,0.25,0.799,0.43c0.002,0.002,0.006,0.006,0.01,0.008c0.234,0.178,0.441,0.391,0.615,0.627   c0.004,0.006,0.01,0.01,0.014,0.016c0.162,0.225,0.283,0.475,0.379,0.738c0.018,0.051,0.033,0.104,0.049,0.156   C18.945,21.426,19,21.705,19,22C19,22.293,18.945,22.572,18.865,22.84z" fill="#333333" fill-rule="evenodd"/></g></svg>