<svg xmlns="http://www.w3.org/2000/svg" width="34" height="36" viewBox="0 0 34 36">
    <g fill="none" fill-rule="evenodd">
        <path fill="#28256E" fill-rule="nonzero" d="M33.128 18.351A16.298 16.298 0 0 0 28.072 6.85c-.61.878-1.308 1.844-1.918 2.722 2.354 2.37 3.661 5.531 3.749 8.868.087 3.512-1.22 6.849-3.575 9.395-2.44 2.546-5.666 3.951-9.154 4.04-3.487.087-6.8-1.23-9.328-3.6-2.528-2.46-3.923-5.708-4.01-9.22-.174-6.059 3.923-11.415 9.677-12.995-.175-1.054-.349-2.196-.436-3.25C5.667 4.567.436 11.416.61 19.142a16.298 16.298 0 0 0 5.057 11.503c3.05 2.897 6.974 4.566 11.246 4.566h.436a16.077 16.077 0 0 0 11.42-5.093c2.877-3.249 4.446-7.376 4.36-11.766z"/>
        <path fill="#00A0DE" d="M8.544 12.03v-.089s0-.087.087-.087a16.428 16.428 0 0 0 1.569-.527c1.133-.351 3.226-1.054 3.836-1.23h.087l.087.088 1.395 8.517s0 .088-.087.088h-.087c-.436-.439-1.657-1.58-2.267-2.195l-2.877-2.897c-.523-.44-1.395-1.318-1.743-1.669zM27.897 4.302c.088 0 .088.088.088.088v.176c-3.662 5.18-7.236 10.36-10.898 15.454 0 0-.087.087-.174.087s-.087-.087-.087-.087c-.96-6.498-1.918-12.908-2.79-19.405V.527h.087c4.62 1.23 9.154 2.546 13.774 3.775z"/>
    </g>
</svg>
