<?xml version="1.0" encoding="utf-8"?>
<!-- Generator: Adobe Illustrator 19.1.0, SVG Export Plug-In . SVG Version: 6.00 Build 0)  -->
<svg version="1.0" id="Layer_1" xmlns="http://www.w3.org/2000/svg" xmlns:xlink="http://www.w3.org/1999/xlink" x="0px" y="0px"
	 width="21px" height="21px" viewBox="0 0 21 21" style="enable-background:new 0 0 21 21;" xml:space="preserve">
<style type="text/css">
	.st0{fill:#099cce;}
</style>
<path class="st0" d="M17.8,10.5c0-0.4,0-0.8-0.1-1.2l1.6-1.3c-0.4-1.5-1.2-2.8-2.3-3.9l-1.9,0.7c-0.6-0.5-1.3-0.9-2-1.2l-0.3-2
	c-0.7-0.2-1.5-0.3-2.3-0.3S9,1.6,8.3,1.8L8,3.7C7.2,4,6.6,4.4,6,4.9L4.1,4.2C3,5.2,2.2,6.6,1.8,8.1l1.6,1.3
	c-0.1,0.4-0.1,0.8-0.1,1.2c0,0.4,0,0.8,0.1,1.2l-1.6,1.3c0.4,1.5,1.2,2.8,2.3,3.9L6,16.1c0.6,0.5,1.3,0.9,2,1.2l0.3,2
	c0.7,0.2,1.5,0.3,2.3,0.3s1.5-0.1,2.3-0.3l0.3-2c0.7-0.3,1.4-0.7,2-1.2l1.9,0.7c1.1-1.1,1.8-2.4,2.3-3.9l-1.6-1.3
	C17.8,11.3,17.8,10.9,17.8,10.5z M10.5,14.3c-2.1,0-3.7-1.7-3.7-3.7c0-2.1,1.7-3.7,3.7-3.7c2.1,0,3.7,1.7,3.7,3.7
	C14.3,12.6,12.6,14.3,10.5,14.3z"/>
</svg>
