<?xml version="1.0" encoding="utf-8"?>
<!-- Generator: Adobe Illustrator 19.1.0, SVG Export Plug-In . SVG Version: 6.00 Build 0)  -->
<svg version="1.0" id="Layer_1" xmlns="http://www.w3.org/2000/svg" xmlns:xlink="http://www.w3.org/1999/xlink" x="0px" y="0px"
	 width="60px" height="60px" viewBox="0 0 60 60" style="enable-background:new 0 0 60 60;" xml:space="preserve">
<style type="text/css">
	.st0{fill:#374456;}
</style>
<path class="st0" d="M29,30.9c0.3,0.3,0.6,0.5,1,0.5c0.3,0,0.6-0.1,0.9-0.3c0.6-0.5,0.6-1.4,0.1-1.9l-9.4-10.7
	c-0.5-0.6-1.4-0.6-1.9-0.1c-0.6,0.5-0.6,1.4-0.1,1.9L29,30.9z M30,4.7c-0.8,0-1.4,0.6-1.4,1.4s0.6,1.4,1.4,1.4
	c12.4,0,22.6,10.1,22.6,22.6c0,12.4-10.1,22.6-22.6,22.6S7.4,42.4,7.4,30c0-6.5,2.8-12.7,7.7-16.9c0.6-0.5,0.6-1.4,0.1-1.9
	c-0.5-0.6-1.4-0.6-1.9-0.1c-5.5,4.8-8.6,11.7-8.6,19c0,13.9,11.3,25.3,25.3,25.3S55.3,43.9,55.3,30C55.3,16.1,43.9,4.7,30,4.7z"/>
</svg>
