<?xml version="1.0" encoding="utf-8"?>
<!-- Generator: Adobe Illustrator 19.1.0, SVG Export Plug-In . SVG Version: 6.00 Build 0)  -->
<svg version="1.0" id="Layer_1" xmlns="http://www.w3.org/2000/svg" xmlns:xlink="http://www.w3.org/1999/xlink" x="0px" y="0px"
	 width="16px" height="16px" viewBox="0 0 16 16" style="enable-background:new 0 0 16 16;" xml:space="preserve">
<style type="text/css">
	.st0{fill:#374456;}
	.st1{fill:#374456;}
</style>
<g>
	<path class="st0" d="M8,14.3c-3.5,0-6.3-2.8-6.3-6.3c0-3.5,2.8-6.3,6.3-6.3c3.5,0,6.3,2.8,6.3,6.3C14.3,11.5,11.5,14.3,8,14.3z
		 M8,2.9C5.2,2.9,2.9,5.2,2.9,8c0,2.8,2.3,5.1,5.1,5.1c2.8,0,5.1-2.3,5.1-5.1C13.1,5.2,10.8,2.9,8,2.9z"/>
</g>
<polygon class="st1" points="8.6,7.4 8.6,4 7.4,4 7.4,8.6 11.2,8.6 11.2,7.4 "/>
</svg>
