<?xml version="1.0" encoding="utf-8"?>
<!-- Generator: Adobe Illustrator 19.1.0, SVG Export Plug-In . SVG Version: 6.00 Build 0)  -->
<svg version="1.0" id="Layer_1" xmlns="http://www.w3.org/2000/svg" xmlns:xlink="http://www.w3.org/1999/xlink" x="0px" y="0px"
	 width="16px" height="16px" viewBox="0 0 16 16" style="enable-background:new 0 0 16 16;" xml:space="preserve">
<style type="text/css">
	.st0{fill:#374456;}
</style>
<g>
	<g>
		<path class="st0" d="M8,14.3c-0.3,0-0.7,0-1-0.1L7.1,13c0.3,0,0.6,0.1,0.8,0.1L8,14.3z M9,14.2L8.8,13c0.3,0,0.5-0.1,0.8-0.2
			L10,14C9.7,14.1,9.4,14.2,9,14.2z M5.9,14c-0.3-0.1-0.6-0.3-1-0.4l0.6-1.1c0.2,0.1,0.5,0.2,0.8,0.3L5.9,14z M11,13.6l-0.6-1.1
			c0.2-0.1,0.5-0.3,0.7-0.5l0.7,1C11.6,13.2,11.3,13.4,11,13.6z M4.1,13c-0.3-0.2-0.5-0.5-0.8-0.7l0.9-0.8c0.2,0.2,0.4,0.4,0.6,0.6
			L4.1,13z M12.6,12.3l-0.9-0.8c0.2-0.2,0.4-0.4,0.5-0.7l1,0.7C13.1,11.8,12.9,12,12.6,12.3z M2.7,11.4c-0.2-0.3-0.4-0.6-0.5-0.9
			L3.3,10c0.1,0.3,0.2,0.5,0.4,0.7L2.7,11.4z M13.8,10.6l-1.1-0.5c0.1-0.3,0.2-0.5,0.3-0.8l1.2,0.3C14,9.9,13.9,10.2,13.8,10.6z
			 M1.9,9.5c-0.1-0.3-0.1-0.7-0.2-1l1.2-0.1C2.9,8.7,3,9,3,9.2L1.9,9.5z M14.3,8.5l-1.2-0.1c0-0.1,0-0.3,0-0.4c0-0.1,0-0.3,0-0.4
			l1.2-0.1c0,0.2,0,0.3,0,0.5C14.3,8.2,14.3,8.4,14.3,8.5z M2.9,7.6L1.7,7.5c0-0.3,0.1-0.7,0.2-1l1.2,0.3C3,7,2.9,7.3,2.9,7.6z
			 M12.9,6.8c-0.1-0.3-0.2-0.5-0.3-0.8l1.1-0.5c0.1,0.3,0.3,0.7,0.3,1L12.9,6.8z M3.3,6L2.2,5.5c0.1-0.3,0.3-0.6,0.5-0.9l1,0.7
			C3.6,5.4,3.4,5.7,3.3,6z M12.3,5.2c-0.2-0.2-0.3-0.5-0.5-0.7l0.9-0.8c0.2,0.3,0.4,0.5,0.6,0.8L12.3,5.2z M4.2,4.5L3.3,3.7
			C3.6,3.5,3.8,3.2,4.1,3l0.8,1C4.6,4.1,4.4,4.3,4.2,4.5z M11.1,4c-0.2-0.2-0.5-0.3-0.7-0.5L11,2.5c0.3,0.2,0.6,0.4,0.9,0.6L11.1,4z
			 M5.6,3.5L5,2.4c0.3-0.2,0.6-0.3,1-0.4l0.4,1.2C6.1,3.3,5.8,3.4,5.6,3.5z M9.7,3.2C9.4,3.1,9.1,3,8.8,3l0.2-1.2
			c0.3,0.1,0.7,0.1,1,0.3L9.7,3.2z M7.2,3L7,1.8c0.3-0.1,0.7-0.1,1-0.1l0,1.2h0C7.7,2.9,7.4,2.9,7.2,3z"/>
	</g>
</g>
<polygon class="st0" points="8.6,7.4 8.6,4 7.4,4 7.4,8.6 11.2,8.6 11.2,7.4 "/>
</svg>
