<?xml version="1.0" encoding="utf-8"?>
<!-- Generator: Adobe Illustrator 19.1.0, SVG Export Plug-In . SVG Version: 6.00 Build 0)  -->
<svg version="1.0" id="Layer_1" xmlns="http://www.w3.org/2000/svg" xmlns:xlink="http://www.w3.org/1999/xlink" x="0px" y="0px"
	 width="50px" height="50px" viewBox="0 0 50 50" style="enable-background:new 0 0 50 50;" xml:space="preserve">
<style type="text/css">
	.st0{fill:#CAD0D3;}
</style>
<g>
	<path class="st0" d="M25.6,36.9c-6.3,0-11.4-5.1-11.4-11.4c0-6.3,5.1-11.4,11.4-11.4c6.3,0,11.4,5.1,11.4,11.4
		C37,31.8,31.9,36.9,25.6,36.9z M25.6,16.3c-5.1,0-9.2,4.1-9.2,9.2c0,5.1,4.1,9.2,9.2,9.2c5.1,0,9.2-4.1,9.2-9.2
		C34.8,20.5,30.7,16.3,25.6,16.3z"/>
</g>
<polygon class="st0" points="26.7,24.4 26.7,19.1 24.5,19.1 24.5,26.6 31.4,26.6 31.4,24.4 "/>
</svg>
