<?xml version="1.0" encoding="utf-8"?>
<!-- Generator: Adobe Illustrator 19.1.0, SVG Export Plug-In . SVG Version: 6.00 Build 0)  -->
<svg version="1.0" id="Layer_1" xmlns="http://www.w3.org/2000/svg" xmlns:xlink="http://www.w3.org/1999/xlink" x="0px" y="0px"
	 width="50px" height="50px" viewBox="0 0 50 50" style="enable-background:new 0 0 50 50;" xml:space="preserve">
<style type="text/css">
	.st0{fill:#FFFFFF;}
</style>
<g>
	<g>
		<path class="st0" d="M25.3,36.9c-0.6,0-1.3-0.1-1.9-0.2l0.4-2.2c0.5,0.1,1,0.1,1.5,0.1V36.9z M27.1,36.7l-0.4-2.2
			c0.5-0.1,1-0.2,1.5-0.4l0.7,2.1C28.4,36.5,27.8,36.6,27.1,36.7z M21.6,36.3c-0.6-0.2-1.2-0.5-1.7-0.8l1.1-1.9
			c0.4,0.2,0.9,0.4,1.4,0.6L21.6,36.3z M30.7,35.5l-1-1.9c0.4-0.2,0.9-0.5,1.3-0.8l1.3,1.7C31.8,34.9,31.2,35.2,30.7,35.5z
			 M18.3,34.5c-0.5-0.4-1-0.8-1.4-1.3l1.6-1.5c0.3,0.4,0.7,0.7,1.1,1L18.3,34.5z M33.6,33.2L32,31.7c0.3-0.4,0.7-0.8,0.9-1.2
			l1.8,1.2C34.5,32.3,34.1,32.8,33.6,33.2z M15.8,31.7c-0.3-0.5-0.6-1.1-0.9-1.7l2-0.9c0.2,0.5,0.4,0.9,0.7,1.3L15.8,31.7z
			 M35.7,30.1l-2-0.9c0.2-0.5,0.4-0.9,0.5-1.4l2.1,0.5C36.2,28.9,36,29.5,35.7,30.1z M14.3,28.3c-0.2-0.6-0.3-1.2-0.3-1.9l2.2-0.2
			c0,0.5,0.1,1,0.2,1.5L14.3,28.3z M36.6,26.5l-2.2-0.2c0-0.3,0-0.5,0-0.8c0-0.2,0-0.5,0-0.7l2.2-0.2c0,0.3,0,0.6,0,0.9
			C36.7,25.8,36.7,26.2,36.6,26.5z M16.2,24.7L14,24.6c0.1-0.6,0.2-1.2,0.3-1.8l2.1,0.5C16.3,23.7,16.2,24.2,16.2,24.7z M34.2,23.3
			c-0.1-0.5-0.3-1-0.5-1.4l2-0.9c0.2,0.6,0.5,1.2,0.6,1.8L34.2,23.3z M16.9,21.8l-2-0.9c0.3-0.6,0.6-1.1,0.9-1.6l1.8,1.2
			C17.4,20.9,17.1,21.4,16.9,21.8z M33,20.5c-0.3-0.4-0.6-0.8-0.9-1.2l1.6-1.5c0.4,0.5,0.8,1,1.1,1.5L33,20.5z M18.6,19.3L17,17.8
			c0.4-0.5,0.9-0.9,1.4-1.3l1.4,1.7C19.3,18.6,18.9,18.9,18.6,19.3z M31,18.3c-0.4-0.3-0.8-0.6-1.3-0.8l1.1-1.9
			c0.5,0.3,1.1,0.6,1.6,1L31,18.3z M20.9,17.4l-1-1.9c0.6-0.3,1.1-0.6,1.7-0.8l0.7,2.1C21.8,17,21.4,17.2,20.9,17.4z M28.3,16.8
			c-0.5-0.2-1-0.3-1.5-0.4l0.4-2.2c0.6,0.1,1.2,0.3,1.8,0.5L28.3,16.8z M23.8,16.5l-0.4-2.2c0.6-0.1,1.2-0.2,1.9-0.2v2.2l0,0
			C24.8,16.3,24.3,16.4,23.8,16.5z"/>
	</g>
</g>
<polygon class="st0" points="26.4,24.4 26.4,19.1 24.2,19.1 24.2,26.6 31.1,26.6 31.1,24.4 "/>
</svg>
