<?xml version="1.0" encoding="utf-8"?>
<!-- Generator: Adobe Illustrator 16.0.0, SVG Export Plug-In . SVG Version: 6.00 Build 0)  -->
<!DOCTYPE svg PUBLIC "-//W3C//DTD SVG 1.1//EN" "http://www.w3.org/Graphics/SVG/1.1/DTD/svg11.dtd">
<svg version="1.1" id="Layer_1" xmlns="http://www.w3.org/2000/svg" xmlns:xlink="http://www.w3.org/1999/xlink" x="0px" y="0px"
	 width="11.669px" height="11.62px" viewBox="0 0 11.669 11.62" enable-background="new 0 0 11.669 11.62" xml:space="preserve">
<path fill-rule="evenodd" clip-rule="evenodd" fill="#FFFFFF" d="M0.011,6.706c-0.01-0.01-0.013-0.024-0.01-0.037
	c0.004-0.013,0.014-0.023,0.027-0.027C0.204,6.589,0.719,6.438,1,6.354C1.67,6.157,2.958,5.781,3.302,5.68
	c0.022-0.006,0.045-0.003,0.064,0.009c0.019,0.013,0.031,0.033,0.034,0.055l0.663,5.063c0.003,0.023-0.009,0.047-0.031,0.057
	c-0.021,0.011-0.047,0.006-0.064-0.011c-0.268-0.276-0.936-0.965-1.291-1.338C2.125,8.93,1.569,8.346,1.013,7.764
	C0.728,7.463,0.171,6.875,0.011,6.706z"/>
<path fill-rule="evenodd" clip-rule="evenodd" fill="#FFFFFF" d="M11.598,2.379c0.031,0.009,0.056,0.033,0.066,0.063
	c0.01,0.03,0.005,0.064-0.015,0.09c-2.208,3.019-4.413,6.032-6.628,9.056c-0.019,0.025-0.051,0.037-0.081,0.029
	s-0.053-0.033-0.057-0.064c-0.501-3.831-1-7.649-1.502-11.475C3.378,0.055,3.387,0.032,3.405,0.017
	c0.018-0.016,0.042-0.021,0.064-0.014C6.182,0.798,8.886,1.587,11.598,2.379z"/>
</svg>
