<?xml version="1.0" encoding="utf-8"?>
<!-- Generator: Adobe Illustrator 19.1.0, SVG Export Plug-In . SVG Version: 6.00 Build 0)  -->
<svg version="1.0" id="Layer_1" xmlns="http://www.w3.org/2000/svg" xmlns:xlink="http://www.w3.org/1999/xlink" x="0px" y="0px"
	 width="1690px" height="957px" viewBox="0 0 1690 957" style="enable-background:new 0 0 1690 957;" xml:space="preserve">
<style type="text/css">
	.st0{fill:#E4E4E4;}
	.st1{fill:#5EB2CF;}
</style>
<path class="st0" d="M1676.8,305.8c-19.4-34.6-44.9-64.9-75.6-91c-29.5-25-63.8-46.2-102.2-63.5c-36.9-16.7-77.7-29.9-121.9-39.6
	c-42.6-9.4-88.3-15.6-136.9-18.5c-7.4,8-14.8,16-22.2,24c-7.5,8.1-15,16.2-22.6,24.4c-7.6,8.2-15.3,16.5-23,24.8
	c-7.8,8.4-15.6,16.8-23.4,25.3c35.8,4.5,69.2,11.4,99.9,20.8c31.5,9.6,60.3,21.9,85.8,36.7c26.3,15.3,49.2,33.3,68.2,54
	c19.6,21.4,35.2,45.8,46.1,73c11.8,29.4,17.7,61.2,17.7,95c0,35-6.4,72-19.3,110.6c-13.3,39.8-33.4,81.2-60.4,123.4
	c-27.7,43.4-62.6,87.6-104.5,131.8c-39.4,41.6-83.8,81.8-132.3,120.1h315.6c16-16.5,31.5-33.1,46.2-49.9
	c53-60.2,95.7-120,128.2-178.3c20.8-37.2,37.3-73.7,49.6-109.3V332.2C1686,323.2,1681.7,314.4,1676.8,305.8z M497.5,282.7
	c-0.4-5.6-0.8-11.2-1.2-16.8c-0.4-5.5-0.8-10.9-1.2-16.4c-84.8,37.6-165.7,80.3-241,126.5c-76.5,46.9-148.5,98.2-214,152.3
	C26.5,539.6,13.1,551,0,562.6v118.9c37.7-45.2,81.7-89.3,130.2-131.1c52.2-44.9,110.4-87.7,172.5-126.9
	c61.4-38.7,127.5-74.5,197.1-106c-0.4-5.9-0.8-11.8-1.2-17.6C498.3,294.1,497.9,288.4,497.5,282.7z"/>
<path class="st0" d="M505.5,413.1c-0.2,0.1-0.4,0.1-0.5,0.2c-0.2,0.1-0.4,0.1-0.5,0.2c-0.2,0.1-0.4,0.2-0.5,0.2
	c-0.2,0.1-0.4,0.2-0.5,0.3c-7.4,3.6-20,9.6-35.5,17c-15.5,7.5-34,16.3-53.4,25.7c-19.4,9.3-39.6,19.1-58.7,28.2
	c-19,9.1-36.8,17.7-51.3,24.7c-5.8,2.8-12.7,6.1-20.1,9.7c-7.4,3.6-15.3,7.3-22.9,11c-7.7,3.7-15.2,7.3-21.8,10.5
	c-6.7,3.2-12.5,6-16.8,8.1c-0.4,0.2-0.8,0.4-1.2,0.7c-0.4,0.2-0.7,0.5-1.1,0.8c-0.3,0.3-0.6,0.5-0.9,0.8c-0.3,0.3-0.5,0.6-0.7,0.8
	c-0.2,0.3-0.3,0.6-0.4,0.8c-0.1,0.2-0.1,0.5-0.1,0.7c0,0.2,0.1,0.4,0.2,0.5c0.1,0.1,0.3,0.3,0.6,0.3c3.1,1.1,7.6,2.8,13,4.7
	c5.4,1.9,11.7,4.2,18.3,6.5c6.6,2.3,13.5,4.8,19.9,7c6.5,2.3,12.6,4.4,17.6,6.2c10.1,3.6,20.3,7.3,30.7,10.9
	c10.4,3.7,21,7.5,31.6,11.3c10.8,3.8,21.7,7.7,32.7,11.6c11.1,4,22.4,7.9,33.8,12c7.3,2.6,16.4,5.7,26.2,9.2
	c9.9,3.4,20.6,7.1,31.2,10.8c10.7,3.7,21.3,7.3,30.7,10.5c9.5,3.2,17.8,6.1,24,8.1c0.2,0.1,0.5,0.1,0.8,0.2c0.3,0,0.6,0,0.9,0
	c0.3,0,0.6,0,0.9-0.1c0.3-0.1,0.7-0.1,1-0.2c0.2-0.1,0.4-0.1,0.6-0.2c0.2-0.1,0.4-0.2,0.6-0.3c0.2-0.1,0.4-0.2,0.6-0.3
	c0.2-0.1,0.4-0.2,0.6-0.3c0.6-0.3,1.1-0.7,1.5-1.1c0.4-0.4,0.8-0.8,1.1-1.1c0.3-0.4,0.5-0.8,0.7-1.1c0.1-0.4,0.2-0.7,0.2-1
	L511.3,414c0-0.2-0.1-0.4-0.3-0.6c-0.1-0.2-0.3-0.3-0.5-0.5c-0.2-0.1-0.5-0.2-0.8-0.3c-0.3-0.1-0.6-0.1-1-0.1c-0.2,0-0.5,0-0.7,0
	s-0.5,0.1-0.8,0.1c-0.3,0-0.5,0.1-0.8,0.2S505.8,413,505.5,413.1"/>
<path class="st1" d="M556.2,185.8c-0.3,0.1-0.6,0.2-0.9,0.3c-0.3,0.1-0.6,0.3-0.9,0.4c-0.3,0.1-0.6,0.3-0.8,0.5
	c-0.3,0.2-0.5,0.3-0.8,0.5c-0.3,0.2-0.7,0.5-0.9,0.7c-0.3,0.2-0.5,0.5-0.7,0.7c-0.2,0.2-0.3,0.5-0.4,0.7c-0.1,0.2-0.1,0.4-0.1,0.6
	c3.8,30.4,7.8,62.2,11.9,95.6c4.4,35.1,9,72,13.8,110.8c5.1,41,10.5,84.2,16.2,130c6,48.5,12.4,100,19.3,154.8
	c0.1,0.5,0.2,0.9,0.5,1.2c0.3,0.3,0.7,0.6,1.1,0.8c0.5,0.2,1,0.4,1.6,0.4c0.6,0.1,1.3,0.1,2.1,0c0.1,0,0.3-0.1,0.4-0.1
	c0.1,0,0.3-0.1,0.4-0.1c0.1,0,0.3-0.1,0.4-0.1c0.1,0,0.3-0.1,0.4-0.1c0.7-0.2,1.3-0.4,1.9-0.7c0.6-0.3,1.2-0.6,1.8-0.9
	c0.6-0.3,1.1-0.7,1.6-1.1c0.5-0.4,1-0.8,1.4-1.3c60-63.6,117.7-124.8,173.3-183.8c53.7-56.9,105.4-111.8,155.4-164.9
	c48.3-51.3,95.1-100.8,140.3-148.8c43.8-46.4,86.2-91.5,127.4-135.1c0.4-0.4,0.6-0.7,0.8-1.1c0.2-0.3,0.3-0.7,0.3-1
	c0-0.3,0-0.6-0.2-0.8c-0.1-0.3-0.4-0.5-0.7-0.7c-0.3-0.2-0.7-0.3-1.2-0.4c-0.5-0.1-1-0.2-1.5-0.2c-0.6,0-1.2,0-1.8,0.1
	c-0.7,0.1-1.3,0.2-2.1,0.3c-61,13.2-120.8,26.1-179.3,38.7c-57.4,12.4-113.7,24.6-168.8,36.5c-54.1,11.7-107.2,23.2-159.3,34.4
	c-51.2,11.1-101.4,21.9-150.7,32.6c-0.1,0-0.2,0.1-0.3,0.1c-0.1,0-0.2,0.1-0.3,0.1s-0.2,0.1-0.4,0.1
	C556.4,185.7,556.3,185.7,556.2,185.8"/>
</svg>
