<svg xmlns="http://www.w3.org/2000/svg" width="18" height="18" viewBox="0 0 18 18">
    <path fill="#8994B3" fill-rule="nonzero" d="M9 18c-4.963 0-9-4.037-9-9s4.037-9 9-9a.75.75 0 0 1 0 1.5C4.864 1.5 1.5 4.864 1.5 9s3.364 7.5 7.5 7.5 7.5-3.364 7.5-7.5A.75.75 0 1 1 18 9c0 4.963-4.037 9-9 9zM9 1.5a.789.789 0 0 1-.533-.218A.789.789 0 0 1 8.25.75c0-.195.082-.39.217-.532.285-.278.788-.278 1.066 0A.789.789 0 0 1 9.75.75c0 .195-.082.39-.217.532A.789.789 0 0 1 9 1.5zm6.93 4.628a.753.753 0 0 1 1.387-.578.753.753 0 0 1-.69 1.043.746.746 0 0 1-.697-.465zm-1.628-2.43a.756.756 0 0 1 0-1.066.747.747 0 0 1 1.057 0 .755.755 0 0 1 0 1.065.748.748 0 0 1-1.057 0zm-2.43-1.628A.753.753 0 0 1 12.45.683c.383.157.563.6.398.982a.741.741 0 0 1-.69.458.74.74 0 0 1-.285-.053zm5.378 7.68a.787.787 0 0 1-.532-.217A.785.785 0 0 1 16.5 9c0-.195.082-.39.218-.533.285-.277.787-.277 1.064 0A.789.789 0 0 1 18 9c0 .195-.082.39-.218.533a.789.789 0 0 1-.532.217zM12 11.25a.752.752 0 0 1-.335-.079l-3-1.5A.75.75 0 0 1 8.25 9V3.75a.75.75 0 0 1 1.5 0v4.787l2.585 1.292A.75.75 0 0 1 12 11.25z" opacity=".597"/>
</svg>
